<svg width="60" height="31" viewBox="0 0 60 31" fill="none" xmlns="http://www.w3.org/2000/svg">
<path d="M8.34247 24.0452C7.15374 24.0452 6.07547 23.8473 5.10765 23.4515C4.15035 23.0452 3.32455 22.4775 2.63025 21.7484C1.94647 21.0192 1.42048 20.1546 1.05229 19.1546C0.684096 18.1546 0.5 17.0609 0.5 15.8734V15.2171C0.5 13.8421 0.705135 12.6182 1.11541 11.5452C1.52568 10.4619 2.08322 9.54524 2.78804 8.79524C3.49287 8.04524 4.29237 7.47753 5.18655 7.09212C6.08073 6.7067 7.00646 6.51399 7.96376 6.51399C9.18405 6.51399 10.236 6.72232 11.1197 7.13899C12.0139 7.55566 12.745 8.13899 13.3131 8.88899C13.8811 9.62857 14.3019 10.5036 14.5754 11.514C14.8489 12.514 14.9857 13.6077 14.9857 14.7952V16.0921H2.23576V13.7327H12.0665V13.514C12.0244 12.764 11.8666 12.0348 11.5931 11.3265C11.3301 10.6182 10.9093 10.0348 10.3307 9.57649C9.75212 9.11816 8.96314 8.88899 7.96376 8.88899C7.30102 8.88899 6.69087 9.02962 6.13332 9.31087C5.57578 9.5817 5.09713 9.98795 4.69738 10.5296C4.29763 11.0713 3.9873 11.7327 3.76638 12.514C3.54547 13.2952 3.43501 14.1963 3.43501 15.2171V15.8734C3.43501 16.6754 3.54547 17.4307 3.76638 18.139C3.99782 18.8369 4.32919 19.4515 4.7605 19.9827C5.20233 20.514 5.73357 20.9307 6.35424 21.2327C6.98542 21.5348 7.70077 21.6859 8.50027 21.6859C9.5312 21.6859 10.4043 21.4775 11.1197 21.0609C11.835 20.6442 12.461 20.0869 12.9975 19.389L14.7648 20.7796C14.3966 21.3317 13.9285 21.8577 13.3604 22.3577C12.7923 22.8577 12.0928 23.264 11.2617 23.5765C10.4412 23.889 9.46808 24.0452 8.34247 24.0452Z" fill="black"/>
<path d="M21.3133 10.4359V23.7327H18.3941V6.82649H21.1555L21.3133 10.4359ZM20.619 14.639L19.404 14.5921C19.4145 13.4359 19.5881 12.3682 19.9247 11.389C20.2613 10.3994 20.7347 9.54003 21.3449 8.81087C21.955 8.0817 22.6809 7.5192 23.5225 7.12337C24.3746 6.71712 25.3161 6.51399 26.347 6.51399C27.1886 6.51399 27.946 6.62857 28.6193 6.85774C29.2925 7.07649 29.8659 7.43066 30.3393 7.92024C30.8232 8.40982 31.1914 9.04524 31.4438 9.82649C31.6963 10.5973 31.8225 11.54 31.8225 12.6546V23.7327H28.8875V12.6234C28.8875 11.7379 28.756 11.0296 28.493 10.4984C28.2301 9.9567 27.8461 9.56607 27.3411 9.32649C26.8362 9.07649 26.2155 8.95149 25.4791 8.95149C24.7533 8.95149 24.0905 9.10253 23.4909 9.40462C22.9018 9.7067 22.3916 10.1234 21.9603 10.6546C21.5395 11.1859 21.2081 11.7952 20.9662 12.4827C20.7347 13.1598 20.619 13.8786 20.619 14.639Z" fill="black"/>
<path d="M43.4048 6.82649V9.04524H34.1737V6.82649H43.4048ZM37.2981 2.71712H40.2173V19.5452C40.2173 20.1182 40.3067 20.5504 40.4856 20.8421C40.6644 21.1338 40.8958 21.3265 41.1799 21.4202C41.4639 21.514 41.769 21.5609 42.0951 21.5609C42.337 21.5609 42.5895 21.54 42.8525 21.4984C43.126 21.4463 43.3311 21.4046 43.4679 21.3734L43.4837 23.7327C43.2523 23.8057 42.9472 23.8734 42.5685 23.9359C42.2003 24.0088 41.7532 24.0452 41.2272 24.0452C40.5119 24.0452 39.8544 23.9046 39.2547 23.6234C38.6551 23.3421 38.1765 22.8734 37.8188 22.2171C37.4716 21.5504 37.2981 20.6546 37.2981 19.5296V2.71712Z" fill="black"/>
<path d="M51.626 21.9827L56.3756 6.82649H59.5L52.6516 26.3421C52.4938 26.7588 52.2835 27.2067 52.0205 27.6859C51.768 28.1754 51.4419 28.639 51.0421 29.0765C50.6424 29.514 50.1585 29.8682 49.5904 30.139C49.0329 30.4202 48.3648 30.5609 47.5864 30.5609C47.355 30.5609 47.0604 30.5296 46.7027 30.4671C46.3451 30.4046 46.0926 30.3525 45.9453 30.3109L45.9295 27.9671C46.0137 27.9775 46.1452 27.9879 46.324 27.9984C46.5134 28.0192 46.6449 28.0296 46.7185 28.0296C47.3813 28.0296 47.9441 27.9411 48.4069 27.764C48.8698 27.5973 49.259 27.3109 49.5746 26.9046C49.9007 26.5088 50.1795 25.9619 50.4109 25.264L51.626 21.9827ZM48.1387 6.82649L52.5727 19.9515L53.3302 22.9984L51.2315 24.0609L44.9512 6.82649H48.1387Z" fill="black"/>
</svg>
